<!--?xml version="1.0" encoding="utf-8"?-->
<!-- Generator: Adobe Illustrator 18.1.1, SVG Export Plug-In . SVG Version: 6.00 Build 0)  -->

<svg version="1.1" id="_x32_" xmlns="http://www.w3.org/2000/svg" xmlns:xlink="http://www.w3.org/1999/xlink" x="0px" y="0px" viewBox="0 0 512 512" style="width: 256px; height: 256px; opacity: 1;" xml:space="preserve">
<style type="text/css">
	.st0{fill:#4B4B4B;}
</style>
<g>
	<path class="st0" d="M437.1,144.718h-20.63v127.706h20.63c13.999,0,25.339-11.347,25.339-25.34v-77.021
		C462.439,156.064,451.099,144.718,437.1,144.718z" style="fill: rgb(75, 75, 75);"></path>
	<path class="st0" d="M444.656,380.916c0.006-15.17-6.192-29.03-16.142-38.966c-9.929-9.949-23.789-16.148-38.966-16.141
		c-15.177-0.007-29.037,6.192-38.966,16.141c-9.956,9.936-16.148,23.796-16.148,38.966v19.4h-17.777v76.416
		c0,19.48,15.796,35.268,35.275,35.268h75.239c19.479,0,35.268-15.789,35.268-35.268v-76.416h-17.784V380.916z M361.19,380.916
		c0-3.951,0.791-7.648,2.222-11.034c2.141-5.074,5.752-9.431,10.281-12.49c4.55-3.066,9.93-4.828,15.856-4.834
		c3.95,0,7.648,0.791,11.034,2.221c5.074,2.142,9.43,5.76,12.49,10.289c3.059,4.542,4.828,9.923,4.834,15.848v19.4H361.19V380.916z
		 M389.548,468.498c-10.063,0-18.223-8.161-18.223-18.223c0-10.063,8.16-18.223,18.223-18.223c10.062,0,18.222,8.16,18.222,18.223
		C407.771,460.337,399.611,468.498,389.548,468.498z" style="fill: rgb(75, 75, 75);"></path>
	<path class="st0" d="M426.246,0h-27.653H85.754C65.761,0,49.561,16.208,49.561,36.193v404.338c0,19.992,16.201,36.2,36.193,36.2
		h210.472v-96.847h17.544l0.585-6.172c0.639-6.79,2.162-13.328,4.489-19.52c-3.817,5.314-9.278,8.778-16.061,8.778
		c-19.559,0-73.935,0-73.935,0s-54.389,0-73.948,0c-19.56,0-28.425-28.444-17.112-48.543c8.52-15.157,22.479-32.322,45.217-42.085
		c13.002,9.092,28.797,14.445,45.843,14.445c17.026,0,32.828-5.354,45.83-14.445c22.732,9.763,36.698,26.928,45.224,42.085
		c5.288,9.398,6.118,20.591,3.552,29.875c3.385-6.078,7.602-11.732,12.696-16.812c14.233-14.266,33.187-22.114,53.371-22.114
		c3.06,0,6.079,0.24,9.072,0.592v-178.27H437.1c13.999,0,25.339-11.34,25.339-25.333V36.193C462.439,16.208,446.231,0,426.246,0z
		 M289.309,207.307c0,33.393-27.068,60.462-60.461,60.462c-33.406,0-60.474-27.069-60.474-60.462v-14.484
		c0-33.4,27.068-60.474,60.474-60.474c33.393,0,60.461,27.075,60.461,60.474V207.307z" style="fill: rgb(75, 75, 75);"></path>
</g>
</svg>
